<!-- <svg width="24" height="24" viewBox="0 0 24 24" fill="none" xmlns="http://www.w3.org/2000/svg">
<path d="M4 19V5L16 12L4 19Z" stroke="#141B34" stroke-width="1.5" stroke-linejoin="round"/>
<path d="M20 4V20" stroke="#141B34" stroke-width="1.5"/>
</svg> -->

<svg xmlns="http://www.w3.org/2000/svg" viewBox="0 0 320 512"><path d="M52.5 440.6c-9.5 7.9-22.8 9.7-34.1 4.4S0 428.4 0 416L0 96C0 83.6 7.2 72.3 18.4 67s24.5-3.6 34.1 4.4l192 160L256 241l0-145c0-17.7 14.3-32 32-32s32 14.3 32 32l0 320c0 17.7-14.3 32-32 32s-32-14.3-32-32l0-145-11.5 9.6-192 160z"/></svg>

